<?xml version="1.0" encoding="utf-8"?>
<!-- Generator: Adobe Illustrator 16.0.0, SVG Export Plug-In . SVG Version: 6.00 Build 0)  -->
<!DOCTYPE svg PUBLIC "-//W3C//DTD SVG 1.1//EN" "http://www.w3.org/Graphics/SVG/1.1/DTD/svg11.dtd">
<svg version="1.1" id="Layer_1" xmlns="http://www.w3.org/2000/svg" xmlns:xlink="http://www.w3.org/1999/xlink" x="0px" y="0px"
	 width="612px" height="612px" viewBox="0 0 612 612" enable-background="new 0 0 612 612" xml:space="preserve">
<g transform="translate(0.000000,123.000000) scale(0.100000,-0.100000)">
	<path fill="#010101" d="M2599.59,1166.128C1476.206,987.178,536.743,191.86,163.945-901.699
		C-5.063-1403.745-29.912-2164.277,114.238-2641.445c313.169-1048.799,1138.291-1864.023,2167.231-2137.412
		c362.861-94.463,1192.974-94.463,1560.825,0c422.52,109.375,949.404,402.607,1282.441,710.801
		c765.459,710.801,1118.408,1779.511,914.59,2798.54C5820.634-180.947,5079.98,664.082,4046.083,1017.007
		C3608.672,1171.108,3012.182,1230.737,2599.59,1166.128z M3598.72,340.991c671.035-178.955,1202.92-616.362,1506.103-1252.636
		c178.984-372.808,183.926-407.588,183.926-934.478c0-526.885-4.941-561.69-183.926-934.482
		c-417.5-864.941-1302.334-1391.807-2226.87-1312.305c-1098.53,94.463-1983.305,974.287-2072.798,2072.802
		C675.942-509.014,2132.353,718.765,3598.72,340.991z"/>
	<path fill="#010101" d="M1858.96-653.154c-149.126-154.101-173.979-208.789-173.979-422.505
		c0-715.796,969.297-849.985,1192.974-169.009c74.565,223.682-4.971,472.222-203.799,641.211
		c-119.292,94.443-208.76,124.282-392.686,124.282C2067.734-479.175,2013.066-504.043,1858.96-653.154z"/>
	<path fill="#010101" d="M3429.687-603.457c-392.656-333.037-278.34-924.551,213.779-1058.745
		c536.836-149.126,959.345,387.71,700.859,884.771C4185.244-469.229,3703.076-379.775,3429.687-603.457z"/>
	<path fill="#010101" d="M2052.817-2040.019c-337.998-149.111-467.251-541.758-293.271-874.814
		c149.116-288.301,556.733-382.754,859.917-198.828c407.622,248.545,372.812,859.912-64.6,1063.75
		C2356.035-1955.508,2256.621-1950.498,2052.817-2040.019z"/>
	<path fill="#010101" d="M3524.16-2059.863c-531.885-263.447-387.715-1073.71,203.77-1138.31
		c412.607-44.717,690.957,203.828,690.957,621.337c0,233.633-144.17,437.402-377.764,536.817
		C3822.402-1950.498,3732.929-1950.498,3524.16-2059.863z"/>
</g>
</svg>
