<?xml version="1.0" standalone="no"?>
<!DOCTYPE svg PUBLIC "-//W3C//DTD SVG 20010904//EN"
 "http://www.w3.org/TR/2001/REC-SVG-20010904/DTD/svg10.dtd">
<svg version="1.0" xmlns="http://www.w3.org/2000/svg"
 width="409.000000pt" height="123.000000pt" viewBox="0 0 409.000000 123.000000"
 preserveAspectRatio="xMidYMid meet">
<metadata>
Created by potrace 1.13, written by Peter Selinger 2001-2015
</metadata>
<g transform="translate(0.000000,123.000000) scale(0.100000,-0.100000)"
fill="#000000" stroke="none">
<path d="M524 1221 c-226 -36 -415 -196 -490 -416 -34 -101 -39 -254 -10 -350
63 -211 229 -375 436 -430 73 -19 240 -19 314 0 85 22 191 81 258 143 154 143
225 358 184 563 -44 219 -193 389 -401 460 -88 31 -208 43 -291 30z m201 -166
c135 -36 242 -124 303 -252 36 -75 37 -82 37 -188 0 -106 -1 -113 -37 -188
-84 -174 -262 -280 -448 -264 -221 19 -399 196 -417 417 -26 304 267 551 562
475z"/>
<path d="M375 855 c-30 -31 -35 -42 -35 -85 0 -144 195 -171 240 -34 15 45 -1
95 -41 129 -24 19 -42 25 -79 25 -43 0 -54 -5 -85 -35z"/>
<path d="M691 865 c-79 -67 -56 -186 43 -213 108 -30 193 78 141 178 -32 62
-129 80 -184 35z"/>
<path d="M414 576 c-68 -30 -94 -109 -59 -176 30 -58 112 -77 173 -40 82 50
75 173 -13 214 -40 19 -60 20 -101 2z"/>
<path d="M710 572 c-107 -53 -78 -216 41 -229 83 -9 139 41 139 125 0 47 -29
88 -76 108 -44 18 -62 18 -104 -4z"/>
<path d="M2660 915 l0 -75 115 0 115 0 0 75 0 75 -115 0 -115 0 0 -75z"/>
<path d="M2940 615 l0 -375 110 0 110 0 0 375 0 375 -110 0 -110 0 0 -375z"/>
<path d="M3210 915 l0 -75 115 0 115 0 0 75 0 75 -115 0 -115 0 0 -75z"/>
<path d="M1550 952 c-47 -15 -91 -31 -97 -35 -8 -5 -13 -30 -13 -63 0 -53 0
-54 -30 -54 l-30 0 0 -85 0 -85 29 0 28 0 5 -133 c6 -145 15 -176 68 -220 35
-30 96 -42 184 -35 101 9 106 14 106 113 l0 83 -37 -10 c-45 -12 -80 2 -88 34
-3 13 -5 55 -3 93 l3 70 62 3 62 3 3 67 3 66 79 -262 79 -263 96 3 95 3 37
113 c20 62 38 114 40 117 3 2 21 -49 40 -113 l36 -117 90 -3 c64 -2 93 1 100
10 5 7 43 125 84 261 l74 248 5 -258 5 -258 110 0 110 0 3 278 2 277 -219 0
-220 0 -9 -34 c-6 -18 -18 -68 -28 -110 -10 -42 -21 -76 -24 -76 -4 0 -20 48
-37 108 l-30 107 -93 0 -94 0 -28 -95 c-40 -135 -38 -133 -60 -50 -10 41 -23
92 -29 113 l-10 37 -169 0 -170 0 0 90 c0 105 7 101 -120 62z"/>
<path d="M3654 790 c-202 -80 -251 -332 -92 -475 27 -24 70 -51 98 -60 63 -21
167 -21 230 0 67 22 142 91 169 156 27 62 30 165 6 222 -22 54 -81 114 -139
145 -70 36 -198 41 -272 12z m186 -196 c36 -35 35 -103 -2 -141 -61 -60 -153
-17 -153 71 0 93 89 133 155 70z"/>
<path d="M3212 523 l3 -278 110 0 110 0 3 278 2 277 -115 0 -115 0 2 -277z"/>
</g>
</svg>
